<svg width="14.513672" height="14.513672" viewBox="0 0 14.5137 14.5137" fill="none" xmlns="http://www.w3.org/2000/svg" xmlns:xlink="http://www.w3.org/1999/xlink">
	<path d="M14.26 1.39L12.9 1.39L12.9 1.01C12.9 0.74 12.8 0.48 12.6 0.29C12.41 0.1 12.15 6.1e-5 11.88 6.1e-5C11.61 6.1e-5 11.35 0.1 11.16 0.29C10.97 0.48 10.86 0.74 10.86 1.01L10.86 1.39L3.64 1.39L3.64 1.01C3.64 0.74 3.53 0.48 3.34 0.29C3.15 0.1 2.89 6.1e-5 2.62 6.1e-5C2.35 6.1e-5 2.09 0.1 1.9 0.29C1.71 0.48 1.6 0.74 1.6 1.01L1.6 1.39L0.24 1.39C0.18 1.39 0.11 1.42 0.07 1.46C0.02 1.51 0 1.57 0 1.64L0 14.26C0 14.33 0.02 14.39 0.07 14.44C0.11 14.48 0.18 14.51 0.24 14.51L14.26 14.51C14.33 14.51 14.39 14.48 14.44 14.44C14.48 14.39 14.51 14.33 14.51 14.26L14.51 1.64C14.51 1.57 14.48 1.51 14.44 1.46C14.39 1.42 14.33 1.39 14.26 1.39ZM11.36 1.01C11.36 0.87 11.41 0.74 11.51 0.64C11.61 0.54 11.74 0.49 11.88 0.49C12.02 0.49 12.16 0.54 12.26 0.64C12.36 0.74 12.41 0.87 12.41 1.01L12.41 2.26C12.41 2.4 12.36 2.53 12.26 2.63C12.16 2.73 12.02 2.79 11.88 2.79C11.74 2.79 11.61 2.73 11.51 2.63C11.41 2.53 11.36 2.4 11.36 2.26L11.36 1.01ZM2.09 1.01C2.09 0.87 2.15 0.74 2.25 0.64C2.35 0.54 2.48 0.49 2.62 0.49C2.76 0.49 2.89 0.54 2.99 0.64C3.09 0.74 3.15 0.87 3.15 1.01L3.15 2.26C3.15 2.4 3.09 2.53 2.99 2.63C2.89 2.73 2.76 2.79 2.62 2.79C2.48 2.79 2.35 2.73 2.25 2.63C2.15 2.53 2.09 2.4 2.09 2.26L2.09 1.01ZM1.6 1.88L1.6 2.26C1.6 2.53 1.71 2.79 1.9 2.98C2.09 3.17 2.35 3.28 2.62 3.28C2.89 3.28 3.15 3.17 3.34 2.98C3.53 2.79 3.64 2.53 3.64 2.26L3.64 1.88L10.86 1.88L10.86 2.26C10.86 2.53 10.97 2.79 11.16 2.98C11.35 3.17 11.61 3.28 11.88 3.28C12.15 3.28 12.41 3.17 12.6 2.98C12.8 2.79 12.9 2.53 12.9 2.26L12.9 1.88L14.02 1.88L14.02 4.47L0.49 4.47L0.49 1.88L1.6 1.88ZM0.49 14.02L0.49 4.96L14.02 4.96L14.02 14.02L0.49 14.02Z" fill="#FFFFFF" fill-rule="nonzero"/>
	<path d="M3.9 6.13L2.68 6.13C2.65 6.13 2.61 6.13 2.58 6.15C2.55 6.16 2.53 6.18 2.5 6.2C2.48 6.22 2.46 6.25 2.45 6.28C2.44 6.31 2.43 6.34 2.43 6.37L2.43 7.6C2.43 7.63 2.44 7.66 2.45 7.69C2.46 7.72 2.48 7.75 2.5 7.77C2.53 7.8 2.55 7.81 2.58 7.83C2.61 7.84 2.65 7.85 2.68 7.85L3.9 7.85C3.94 7.85 3.97 7.84 4 7.83C4.03 7.81 4.06 7.8 4.08 7.77C4.1 7.75 4.12 7.72 4.13 7.69C4.14 7.66 4.15 7.63 4.15 7.6L4.15 6.37C4.15 6.34 4.14 6.31 4.13 6.28C4.12 6.25 4.1 6.22 4.08 6.2C4.06 6.18 4.03 6.16 4 6.15C3.97 6.13 3.94 6.13 3.9 6.13ZM3.66 7.35L2.92 7.35L2.92 6.62L3.66 6.62L3.66 7.35ZM6.54 6.13L5.32 6.13C5.25 6.13 5.19 6.15 5.14 6.2C5.1 6.25 5.07 6.31 5.07 6.37L5.07 7.6C5.07 7.66 5.1 7.73 5.14 7.77C5.19 7.82 5.25 7.85 5.32 7.85L6.54 7.85C6.61 7.85 6.67 7.82 6.72 7.77C6.77 7.73 6.79 7.66 6.79 7.6L6.79 6.37C6.79 6.31 6.77 6.25 6.72 6.2C6.67 6.15 6.61 6.13 6.54 6.13ZM6.3 7.35L5.56 7.35L5.56 6.62L6.3 6.62L6.3 7.35ZM9.18 6.13L7.96 6.13C7.89 6.13 7.83 6.15 7.78 6.2C7.74 6.25 7.71 6.31 7.71 6.37L7.71 7.6C7.71 7.66 7.74 7.73 7.78 7.77C7.83 7.82 7.89 7.85 7.96 7.85L9.18 7.85C9.22 7.85 9.25 7.84 9.28 7.83C9.31 7.81 9.34 7.8 9.36 7.77C9.38 7.75 9.4 7.72 9.41 7.69C9.42 7.66 9.43 7.63 9.43 7.6L9.43 6.37C9.43 6.34 9.42 6.31 9.41 6.28C9.4 6.25 9.38 6.22 9.36 6.2C9.34 6.18 9.31 6.16 9.28 6.15C9.25 6.13 9.22 6.13 9.18 6.13ZM8.94 7.35L8.2 7.35L8.2 6.62L8.94 6.62L8.94 7.35ZM11.83 6.13L10.6 6.13C10.57 6.13 10.53 6.13 10.5 6.15C10.47 6.16 10.45 6.18 10.42 6.2C10.4 6.22 10.38 6.25 10.37 6.28C10.36 6.31 10.35 6.34 10.35 6.37L10.35 7.6C10.35 7.63 10.36 7.66 10.37 7.69C10.38 7.72 10.4 7.75 10.42 7.77C10.45 7.8 10.47 7.81 10.5 7.83C10.53 7.84 10.57 7.85 10.6 7.85L11.82 7.85C11.86 7.85 11.89 7.84 11.92 7.83C11.95 7.81 11.98 7.8 12 7.77C12.02 7.75 12.04 7.72 12.05 7.69C12.06 7.66 12.07 7.63 12.07 7.6L12.07 6.37C12.07 6.31 12.05 6.25 12 6.2C11.95 6.15 11.89 6.13 11.83 6.13ZM11.58 7.35L10.85 7.35L10.85 6.62L11.58 6.62L11.58 7.35ZM3.9 8.66L2.68 8.66C2.65 8.66 2.61 8.66 2.58 8.68C2.55 8.69 2.53 8.71 2.5 8.73C2.48 8.75 2.46 8.78 2.45 8.81C2.44 8.84 2.43 8.87 2.43 8.9L2.43 10.13C2.43 10.16 2.44 10.19 2.45 10.22C2.46 10.25 2.48 10.28 2.5 10.3C2.53 10.33 2.55 10.35 2.58 10.36C2.61 10.37 2.65 10.38 2.68 10.38L3.9 10.38C3.94 10.38 3.97 10.37 4 10.36C4.03 10.35 4.06 10.33 4.08 10.3C4.1 10.28 4.12 10.25 4.13 10.22C4.14 10.19 4.15 10.16 4.15 10.13L4.15 8.9C4.15 8.87 4.14 8.84 4.13 8.81C4.12 8.78 4.1 8.75 4.08 8.73C4.06 8.71 4.03 8.69 4 8.68C3.97 8.66 3.94 8.66 3.9 8.66ZM3.66 9.88L2.92 9.88L2.92 9.15L3.66 9.15L3.66 9.88ZM6.54 8.66L5.32 8.66C5.25 8.66 5.19 8.68 5.14 8.73C5.1 8.78 5.07 8.84 5.07 8.9L5.07 10.13C5.07 10.2 5.1 10.26 5.14 10.3C5.19 10.35 5.25 10.38 5.32 10.38L6.54 10.38C6.61 10.38 6.67 10.35 6.72 10.3C6.77 10.26 6.79 10.2 6.79 10.13L6.79 8.9C6.79 8.84 6.77 8.78 6.72 8.73C6.67 8.68 6.61 8.66 6.54 8.66ZM6.3 9.88L5.56 9.88L5.56 9.15L6.3 9.15L6.3 9.88ZM9.18 8.66L7.96 8.66C7.89 8.66 7.83 8.68 7.78 8.73C7.74 8.78 7.71 8.84 7.71 8.9L7.71 10.13C7.71 10.2 7.74 10.26 7.78 10.3C7.83 10.35 7.89 10.38 7.96 10.38L9.18 10.38C9.22 10.38 9.25 10.37 9.28 10.36C9.31 10.35 9.34 10.33 9.36 10.3C9.38 10.28 9.4 10.25 9.41 10.22C9.42 10.19 9.43 10.16 9.43 10.13L9.43 8.9C9.43 8.87 9.42 8.84 9.41 8.81C9.4 8.78 9.38 8.75 9.36 8.73C9.34 8.71 9.31 8.69 9.28 8.68C9.25 8.66 9.22 8.66 9.18 8.66ZM8.94 9.88L8.2 9.88L8.2 9.15L8.94 9.15L8.94 9.88ZM11.83 8.66L10.6 8.66C10.57 8.66 10.53 8.66 10.5 8.68C10.47 8.69 10.45 8.71 10.42 8.73C10.4 8.75 10.38 8.78 10.37 8.81C10.36 8.84 10.35 8.87 10.35 8.9L10.35 10.13C10.35 10.16 10.36 10.19 10.37 10.22C10.38 10.25 10.4 10.28 10.42 10.3C10.45 10.33 10.47 10.35 10.5 10.36C10.53 10.37 10.57 10.38 10.6 10.38L11.82 10.38C11.86 10.38 11.89 10.37 11.92 10.36C11.95 10.35 11.98 10.33 12 10.3C12.02 10.28 12.04 10.25 12.05 10.22C12.06 10.19 12.07 10.16 12.07 10.13L12.07 8.9C12.07 8.84 12.05 8.78 12 8.73C11.95 8.68 11.89 8.66 11.83 8.66ZM11.58 9.88L10.85 9.88L10.85 9.15L11.58 9.15L11.58 9.88ZM3.9 11.19L2.68 11.19C2.65 11.19 2.61 11.2 2.58 11.21C2.55 11.22 2.53 11.24 2.5 11.26C2.48 11.28 2.46 11.31 2.45 11.34C2.44 11.37 2.43 11.4 2.43 11.44L2.43 12.66C2.43 12.69 2.44 12.73 2.45 12.76C2.46 12.79 2.48 12.81 2.5 12.84C2.53 12.86 2.55 12.88 2.58 12.89C2.61 12.9 2.65 12.91 2.68 12.91L3.9 12.91C3.94 12.91 3.97 12.9 4 12.89C4.03 12.88 4.06 12.86 4.08 12.84C4.1 12.81 4.12 12.79 4.13 12.76C4.14 12.73 4.15 12.69 4.15 12.66L4.15 11.44C4.15 11.4 4.14 11.37 4.13 11.34C4.12 11.31 4.1 11.28 4.08 11.26C4.06 11.24 4.03 11.22 4 11.21C3.97 11.2 3.94 11.19 3.9 11.19ZM3.66 12.42L2.92 12.42L2.92 11.68L3.66 11.68L3.66 12.42ZM6.54 11.19L5.32 11.19C5.25 11.19 5.19 11.22 5.14 11.26C5.1 11.31 5.07 11.37 5.07 11.44L5.07 12.66C5.07 12.73 5.1 12.79 5.14 12.84C5.19 12.88 5.25 12.91 5.32 12.91L6.54 12.91C6.61 12.91 6.67 12.88 6.72 12.84C6.77 12.79 6.79 12.73 6.79 12.66L6.79 11.44C6.79 11.37 6.77 11.31 6.72 11.26C6.67 11.22 6.61 11.19 6.54 11.19ZM6.3 12.42L5.56 12.42L5.56 11.68L6.3 11.68L6.3 12.42ZM9.18 11.19L7.96 11.19C7.89 11.19 7.83 11.22 7.78 11.26C7.74 11.31 7.71 11.37 7.71 11.44L7.71 12.66C7.71 12.73 7.74 12.79 7.78 12.84C7.83 12.88 7.89 12.91 7.96 12.91L9.18 12.91C9.22 12.91 9.25 12.9 9.28 12.89C9.31 12.88 9.34 12.86 9.36 12.84C9.38 12.81 9.4 12.79 9.41 12.76C9.42 12.73 9.43 12.69 9.43 12.66L9.43 11.44C9.43 11.4 9.42 11.37 9.41 11.34C9.4 11.31 9.38 11.28 9.36 11.26C9.34 11.24 9.31 11.22 9.28 11.21C9.25 11.2 9.22 11.19 9.18 11.19ZM8.94 12.42L8.2 12.42L8.2 11.68L8.94 11.68L8.94 12.42ZM11.83 11.19L10.6 11.19C10.57 11.19 10.53 11.2 10.5 11.21C10.47 11.22 10.45 11.24 10.42 11.26C10.4 11.28 10.38 11.31 10.37 11.34C10.36 11.37 10.35 11.4 10.35 11.44L10.35 12.66C10.35 12.69 10.36 12.73 10.37 12.76C10.38 12.79 10.4 12.81 10.42 12.84C10.45 12.86 10.47 12.88 10.5 12.89C10.53 12.9 10.57 12.91 10.6 12.91L11.82 12.91C11.86 12.91 11.89 12.9 11.92 12.89C11.95 12.88 11.98 12.86 12 12.84C12.02 12.81 12.04 12.79 12.05 12.76C12.06 12.73 12.07 12.69 12.07 12.66L12.07 11.44C12.07 11.37 12.05 11.31 12 11.26C11.95 11.22 11.89 11.19 11.83 11.19ZM11.58 12.42L10.85 12.42L10.85 11.68L11.58 11.68L11.58 12.42Z" fill="#FFFFFF" fill-rule="nonzero"/>
</svg>
